# xmcd CD database file
#
# Track frame offsets:
#	150
#	30022
#	60930
#	96542
#	116272
#	152272
#	183030
#	209952
#	244075
#	282257
#
# Disc length: 4169 seconds
#
# Revision: 2
# Processed by: cddbd v1.5.1PL0 Copyright (c) Steve Scherf et al.
# Submitted via: CDex 1.51
#
DISCID=7910470a
DTITLE=Dave Brubeck with Chris, Dan, Darius and Matthew Brubeck - In Their Own Sweet Way
DYEAR=1900
DGENRE=Jazz
TTITLE0=In Your Own Sweet Way
TTITLE1=Bifocal Blues
TTITLE2=Sermon on the Mount
TTITLE3=Michael, My Second Son
TTITLE4=Ode to a Cowboy
TTITLE5=Dave 'n Darius
TTITLE6=We Will All Remember Paul
TTITLE7=Sixth Sense
TTITLE8=My One Bad Habit
TTITLE9=Sweet Georgia Brown
EXTD=Dave Brubeck - piano\nChris Brubeck - electric bass\nDan Brubeck - drums\nDarius Brubeck - piano\nMatthew Brubeck - cello
EXTT0=Dave Brubeck with Chris, Dan, Darius and Matthew Brubeck
EXTT1=Dave Brubeck with Chris, Dan, Darius and Matthew Brubeck
EXTT2=Dave Brubeck with Chris, Dan, Darius and Matthew Brubeck
EXTT3=Dave Brubeck with Chris, Dan, Darius and Matthew Brubeck
EXTT4=Dave Brubeck with Chris, Dan, Darius and Matthew Brubeck
EXTT5=Dave Brubeck with Chris, Dan, Darius and Matthew Brubeck
EXTT6=Dave Brubeck with Chris, Dan, Darius and Matthew Brubeck
EXTT7=Dave Brubeck with Chris, Dan, Darius and Matthew Brubeck
EXTT8=Dave Brubeck with Chris, Dan, Darius and Matthew Brubeck
EXTT9=Dave Brubeck with Chris, Dan, Darius and Matthew Brubeck
PLAYORDER=
